<mxfile host="app.diagrams.net" agent="Mozilla/5.0 (Windows NT 10.0; Win64; x64) AppleWebKit/537.36 (KHTML, like Gecko) Chrome/141.0.0.0 Safari/537.36 Edg/141.0.0.0" version="28.2.8">
  <diagram name="第 1 页" id="GKBoGbuL-wtPY6gAfn81">
    <mxGraphModel dx="726" dy="417" grid="1" gridSize="10" guides="1" tooltips="1" connect="1" arrows="1" fold="1" page="1" pageScale="1" pageWidth="827" pageHeight="1169" math="0" shadow="0">
      <root>
        <mxCell id="0" />
        <mxCell id="1" parent="0" />
        <mxCell id="GrQ1CEbLDMaVO-U0OBDa-2" value="" style="rounded=1;whiteSpace=wrap;html=1;fillColor=#f5f5f5;fontColor=#333333;strokeColor=#666666;" parent="1" vertex="1">
          <mxGeometry x="50" y="60" width="320" height="90" as="geometry" />
        </mxCell>
        <mxCell id="GrQ1CEbLDMaVO-U0OBDa-8" value="" style="whiteSpace=wrap;html=1;rounded=1;" parent="1" vertex="1">
          <mxGeometry x="380" y="60" width="240" height="150" as="geometry" />
        </mxCell>
        <mxCell id="GrQ1CEbLDMaVO-U0OBDa-10" value="Policy Rater" style="text;html=1;whiteSpace=wrap;strokeColor=none;fillColor=none;align=center;verticalAlign=middle;rounded=0;fontFamily=Helvetica;fontSize=12;fontColor=default;labelBackgroundColor=default;" parent="1" vertex="1">
          <mxGeometry x="455" y="60" width="90" height="30" as="geometry" />
        </mxCell>
        <mxCell id="GrQ1CEbLDMaVO-U0OBDa-11" value="&lt;span&gt;&lt;font face=&quot;Comic Sans MS&quot;&gt;Video from the policy rollout in &lt;span&gt;simulation&lt;/span&gt;&lt;/font&gt;&lt;/span&gt;" style="text;html=1;whiteSpace=wrap;strokeColor=none;fillColor=none;align=center;verticalAlign=middle;rounded=0;fontFamily=Helvetica;fontSize=12;fontColor=default;labelBackgroundColor=default;" parent="1" vertex="1">
          <mxGeometry x="90" y="60" width="230" height="30" as="geometry" />
        </mxCell>
      </root>
    </mxGraphModel>
  </diagram>
</mxfile>
